<svg xmlns="http://www.w3.org/2000/svg" viewBox="0 0 512 512" width="128px" height="128px"><path fill="#2979FF" d="M146.543 59.023c-25.321.276-46.767 13.474-62.514 25.479s-26.283 24.08-26.283 24.08l-.369.422-.338.449S42.332 128.55 32.996 151.99c-4.668 11.72-8.381 24.788-7.057 38.744s9.871 28.987 25.01 36.723c.416.213.369.212.592.344-.461 2.604-3.475 9.722-6.512 18.693-3.103 9.168-6.017 21.967-.52 35.152 5.15 12.351 16.673 22.004 33.746 29.66.23.832.532 1.746.793 4.051.696 6.146.674 15.908 1.564 26.396s2.519 22.136 9.133 33.064 19.734 19.68 35.463 20.969c.648.053.403.077.902.146.119.957.219 1.397.307 2.861.353 5.858 1.544 14.997 6.826 24.191s14.148 18.034 27.721 26.316c17.104 10.437 30.155 15.83 42.154 17.178s24.067-3.277 30.299-11.059c11.297-14.108 7.963-28.493 7.217-31.182l.883-279.982-.019-.41s-.989-14.748-10.357-30.994-27.417-35.412-59.289-48.918c-8.355-3.54-17.024-5.002-25.309-4.912zm221.947 0c-8.285-.09-16.955 1.371-25.311 4.912-31.872 13.506-49.919 32.671-59.287 48.918s-10.357 30.994-10.357 30.994l-.019.41.883 279.979c-.744 2.68-4.085 17.072 7.217 31.186 6.232 7.782 18.3 12.406 30.299 11.059s25.05-6.741 42.154-17.178c13.573-8.282 22.439-17.122 27.721-26.316s6.473-18.333 6.826-24.191c.088-1.465.187-1.905.307-2.861.5-.07.256-.093.904-.146 15.729-1.289 28.849-10.042 35.463-20.971s8.24-22.574 9.131-33.062.869-20.251 1.564-26.396c.261-2.305.563-3.219.793-4.051 17.073-7.656 28.596-17.309 33.746-29.66 5.498-13.185 2.583-25.985-.52-35.152-3.036-8.971-6.051-16.09-6.512-18.693.223-.132.175-.131.592-.344 15.139-7.736 23.686-22.766 25.01-36.723s-2.388-27.024-7.057-38.744c-9.336-23.44-24.043-42.539-24.043-42.539l-.34-.447-.369-.422s-10.535-12.073-26.281-24.078-37.193-25.204-62.514-25.48z"/></svg>